Coordinates
version=1
nRows=49
nColumns=12
inDegrees=yes

Units are S.I. units (second, meters, Newtons, ...)
Angles are in degrees

endheader
time	SC_y	SC_z	SC_x	AC_y	AC_z	AC_x	GH_y	GH_z	GH_yy	EL_x	PS_y
       0.0              -43.81          18.08          31.31          40.33          6.576         -15.03         -84.74          14.97          39.67          61.69          159.6
   0.02203               -43.8          18.08          31.31          40.33          6.574         -15.03         -84.73          14.97          39.68          61.69          159.6
   0.04407               -43.8          18.08          31.32          40.33          6.572         -15.02         -84.71          14.98          39.68          61.68          159.6
    0.0661              -43.79          18.09          31.33          40.33           6.57         -15.02          -84.7          14.98          39.69          61.68          159.6
   0.08813              -43.79          18.09          31.34          40.33          6.567         -15.02         -84.68          14.99           39.7          61.68          159.5
    0.1102              -43.79          18.09          31.35          40.33          6.565         -15.02         -84.66          14.99          39.71          61.67          159.5
    0.1322              -43.78           18.1          31.35          40.33          6.562         -15.02         -84.64           15.0          39.72          61.67          159.5
    0.1542              -43.77           18.1          31.36          40.33          6.559         -15.02         -84.62          15.01          39.73          61.66          159.5
    0.1763              -43.77           18.1          31.37          40.32          6.556         -15.02         -84.59          15.02          39.74          61.66          159.5
    0.1983              -43.76          18.11          31.39          40.32          6.552         -15.02         -84.57          15.03          39.75          61.65          159.5
    0.2203              -43.76          18.11           31.4          40.32          6.548         -15.01         -84.54          15.04          39.76          61.65          159.4
    0.2424              -43.75          18.11          31.41          40.32          6.544         -15.01         -84.51          15.05          39.77          61.64          159.4
    0.2644              -43.74          18.12          31.42          40.32           6.54         -15.01         -84.48          15.06          39.79          61.64          159.4
    0.2864              -43.73          18.13          31.44          40.31          6.536         -15.01         -84.44          15.07           39.8          61.63          159.4
    0.3085              -43.72          18.13          31.46          40.31          6.531         -15.01         -84.41          15.08          39.82          61.62          159.4
    0.3305              -43.71          18.14          31.47          40.31          6.525          -15.0         -84.37           15.1          39.84          61.61          159.3
    0.3525               -43.7          18.14          31.49          40.31          6.519          -15.0         -84.32          15.11          39.86           61.6          159.3
    0.3746              -43.69          18.15          31.51           40.3          6.513          -15.0         -84.28          15.13          39.88          61.59          159.3
    0.3966              -43.68          18.16          31.54           40.3          6.506         -14.99         -84.23          15.15           39.9          61.58          159.2
    0.4186              -43.66          18.17          31.56          40.29          6.498         -14.99         -84.17          15.17          39.93          61.57          159.2
    0.4407              -43.65          18.18          31.59          40.29           6.49         -14.99         -84.11          15.19          39.96          61.56          159.1
    0.4627              -43.63          18.19          31.62          40.29           6.48         -14.98         -84.04          15.21          39.99          61.55          159.1
    0.4847              -43.61           18.2          31.65          40.28           6.47         -14.98         -83.96          15.24          40.02          61.53          159.0
    0.5068              -43.59          18.21          31.69          40.27          6.459         -14.97         -83.88          15.27          40.06          61.51          159.0
    0.5288              -43.57          18.23          31.73          40.27          6.446         -14.97         -83.79           15.3           40.1           61.5          158.9
    0.5508              -43.54          18.24          31.78          40.26          6.432         -14.96         -83.68          15.34          40.15          61.47          158.8
    0.5729              -43.52          18.26          31.83          40.25          6.416         -14.95         -83.57          15.38           40.2          61.45          158.8
    0.5949              -43.48          18.28          31.89          40.24          6.398         -14.95         -83.44          15.42          40.26          61.42          158.7
    0.6169              -43.45           18.3          31.95          40.23          6.378         -14.94         -83.29          15.47          40.32          61.39          158.6
     0.639              -43.41          18.33          32.02          40.22          6.356         -14.93         -83.12          15.53           40.4          61.36          158.5
     0.661              -43.36          18.36          32.11          40.21           6.33         -14.91         -82.93           15.6          40.48          61.32          158.3
     0.683              -43.31          18.39          32.21          40.19            6.3          -14.9         -82.71          15.67          40.58          61.28          158.2
    0.7051              -43.24          18.43          32.32          40.18          6.265         -14.89         -82.46          15.76           40.7          61.23          158.0
    0.7271              -43.17          18.48          32.45          40.16          6.225         -14.87         -82.16          15.87          40.83          61.17          157.8
    0.7491              -43.08          18.53           32.6          40.13          6.179         -14.85         -81.82          15.99          40.99           61.1          157.5
    0.7712              -42.98          18.59          32.78           40.1          6.123         -14.82         -81.41          16.13          41.17          61.02          157.3
    0.7932              -42.87          18.67          32.99          40.07          6.058         -14.79         -80.93           16.3          41.38          60.92          156.9
    0.8152              -42.72          18.76          33.25          40.03          5.979         -14.76         -80.35           16.5          41.65           60.8          156.5
    0.8373              -42.55          18.87          33.56          39.98          5.884         -14.71         -79.65          16.74          41.96          60.66          156.0
    0.8593              -42.34           19.0          33.94          39.92          5.768         -14.66         -78.79          17.04          42.34          60.49          155.4
    0.8813              -42.08          19.16           34.4          39.85          5.624          -14.6         -77.73          17.41          42.82          60.27          154.7
    0.9034              -41.75          19.37          34.98          39.76          5.445         -14.52         -76.42          17.87          43.41          60.01          153.8
    0.9254              -41.35          19.62          35.72          39.64           5.22         -14.41         -74.76          18.45          44.16          59.67          152.6
    0.9474              -40.83          19.95          36.65           39.5          4.933         -14.28         -72.65          19.18          45.11          59.24          151.1
    0.9695              -40.16          20.37          37.84          39.31          4.567         -14.12         -69.95          20.12          46.32           58.7          149.2
    0.9915              -39.31           20.9          39.37          39.07          4.096         -13.91         -66.48          21.33          47.88           58.0          146.8
     1.014              -38.22          21.59          41.32          38.77          3.495         -13.64         -62.05          22.88          49.87           57.1          143.7
     1.036              -36.84          22.45          43.78          38.38          2.739         -13.29         -56.49          24.82          52.37          55.98          139.8
     1.058              -35.17           23.5          46.78          37.91          1.818         -12.88          -49.7          27.18          55.42          54.61          135.1
